<?xml version="1.0" standalone="no"?>
<!DOCTYPE svg PUBLIC "-//W3C//DTD SVG 20010904//EN"
 "http://www.w3.org/TR/2001/REC-SVG-20010904/DTD/svg10.dtd">
<svg version="1.0" xmlns="http://www.w3.org/2000/svg"
 width="64.000000pt" height="64.000000pt" viewBox="0 0 64.000000 64.000000"
 preserveAspectRatio="xMidYMid meet">

<g transform="translate(0.000000,64.000000) scale(0.100000,-0.100000)"
fill="#000000" stroke="none">
<path d="M2 618 c3 -7 20 -14 39 -16 19 -2 39 -8 46 -14 6 -5 33 -72 58 -149
36 -107 45 -148 41 -175 -6 -28 -3 -38 18 -59 25 -25 28 -25 186 -25 136 0
160 2 160 15 0 13 -24 15 -160 15 -147 0 -160 1 -170 19 -21 41 -7 46 167 64
201 20 201 20 232 143 12 47 19 89 16 95 -4 5 -106 9 -245 9 l-240 0 -19 39
c-23 44 -36 51 -93 51 -27 0 -38 -4 -36 -12z m598 -125 c0 -33 -29 -126 -43
-140 -14 -14 -277 -47 -320 -41 -16 2 -27 24 -53 101 l-33 97 225 0 c207 0
224 -1 224 -17z"/>
<path d="M160 120 c-40 -40 -11 -110 45 -110 56 0 85 70 45 110 -11 11 -31 20
-45 20 -14 0 -34 -9 -45 -20z m75 -30 c8 -27 -12 -52 -39 -48 -21 3 -32 28
-22 54 8 22 54 18 61 -6z"/>
<path d="M440 120 c-40 -40 -11 -110 45 -110 57 0 88 83 43 114 -31 22 -64 20
-88 -4z m75 -45 c0 -25 -4 -30 -24 -30 -32 0 -49 28 -31 50 7 9 23 15 34 13
16 -2 21 -10 21 -33z"/>
</g>
</svg>
